<?xml version="1.0" encoding="UTF-8"?>
<svg width="14px" height="14px" viewBox="0 0 14 14" version="1.1" xmlns="http://www.w3.org/2000/svg" xmlns:xlink="http://www.w3.org/1999/xlink">
    <!-- Generator: Sketch 46.2 (44496) - http://www.bohemiancoding.com/sketch -->
    <title>cancel-music</title>
    <desc>Created with Sketch.</desc>
    <defs>
        <polygon id="path-1" points="0.0049122807 0.0503099415 0.0049122807 14.0001228 13.9497719 14.0001228 13.9497719 0.0503099415"></polygon>
    </defs>
    <g id="Page-1" stroke="none" stroke-width="1" fill="none" fill-rule="evenodd" opacity="1">
        <g id="hwr" transform="translate(-633.000000, -1784.000000)">
            <g id="cancel-music" transform="translate(633.000000, 1784.000000)">
                <mask id="mask-2" fill="white">
                    <use xlink:href="#path-1"></use>
                </mask>
                <g id="Clip-2"></g>
                <path d="M8.63259649,7.02505263 L13.6062807,2.05169591 C14.064269,1.5937076 14.064269,0.851461988 13.6062807,0.39380117 C13.1487018,-0.0641871345 12.4063743,-0.0641871345 11.948386,0.39380117 L6.97470175,5.36748538 L2.00101754,0.39380117 C1.5434386,-0.0641871345 0.801111111,-0.0641871345 0.343450292,0.39380117 C-0.11445614,0.851461988 -0.11445614,1.5937076 0.343450292,2.05169591 L5.31680702,7.02505263 L0.343450292,11.9987368 C-0.11445614,12.4567251 -0.11445614,13.1989708 0.343450292,13.6566316 C0.801111111,14.1146199 1.5434386,14.1146199 2.00101754,13.6566316 L6.97470175,8.68294737 L11.948386,13.6566316 C12.4063743,14.1146199 13.1487018,14.1146199 13.6062807,13.6566316 C14.064269,13.1986433 14.064269,12.4567251 13.6062807,11.9987368 L8.63259649,7.02505263 Z" id="Fill-1" fill="#444" mask="url(#mask-2)"></path>
            </g>
        </g>
    </g>
</svg>
