<?xml version="1.0" encoding="UTF-8"?>
<svg width="30px" height="30px" viewBox="0 0 30 30" version="1.1" xmlns="http://www.w3.org/2000/svg" xmlns:xlink="http://www.w3.org/1999/xlink">
    <!-- Generator: Sketch 46.2 (44496) - http://www.bohemiancoding.com/sketch -->
    <title>GitHub</title>
    <desc>Created with Sketch.</desc>
    <defs></defs>
    <g id="Page-1" stroke="none" stroke-width="1" fill="none" fill-rule="evenodd">
        <g id="ICO-LP-ver.1" transform="translate(-855.000000, -498.000000)" fill-rule="nonzero" fill="#6E7987">
            <g id="GitHub" transform="translate(855.000000, 498.000000)">
                <g id="github-logo">
                    <path d="M27.8969135,7.58624453 C26.5599301,5.26023839 24.7463975,3.41873608 22.4558385,2.06132221 C20.1649385,0.703839102 17.6639586,0.0252706347 14.9511261,0.0252706347 C12.2386345,0.0252706347 9.73683639,0.704046806 7.44641369,2.06132221 C5.15565006,3.41866685 3.34218568,5.26023839 2.00520231,7.58624453 C0.668423498,9.91218145 0,12.4521226 0,15.2059986 C0,18.5140286 0.950507351,21.4886938 2.85199935,24.130756 C4.7532868,26.7730259 7.20946871,28.6013736 10.2203405,29.6160069 C10.5708145,29.6820567 10.8302608,29.6356003 10.998952,29.4778146 C11.1677113,29.3198212 11.2519887,29.1219487 11.2519887,28.8850278 C11.2519887,28.8454948 11.2486477,28.4898366 11.24217,27.8176377 C11.2354878,27.1454388 11.2323513,26.5590217 11.2323513,26.0586631 L10.7845764,26.1373136 C10.4990833,26.1904166 10.1389269,26.2129178 9.7041073,26.2065482 C9.26949224,26.2003863 8.81830809,26.1541376 8.3511685,26.0681482 C7.88382435,25.9829204 7.44914111,25.7852556 7.04677785,25.4755692 C6.64461915,25.1658827 6.35912601,24.760514 6.19036664,24.2600862 L5.99569673,23.8052148 C5.86593952,23.5023826 5.66165545,23.1659716 5.38257176,22.7972281 C5.10348807,22.4281383 4.82126785,22.1779244 4.53577471,22.0461709 L4.39947169,21.9470962 C4.30864846,21.8812541 4.22437105,21.801842 4.1464349,21.7096907 C4.06856694,21.6175394 4.01026825,21.5253189 3.97133427,21.43296 C3.9323321,21.3405317 3.96465208,21.2647198 4.06863513,21.2052473 C4.17261818,21.1457748 4.36053771,21.1169039 4.63321195,21.1169039 L5.02241539,21.1759611 C5.28199799,21.2287871 5.60308401,21.3865728 5.98608256,21.6502874 C6.36887655,21.9137944 6.68355313,22.2563672 6.93018046,22.6778676 C7.22883342,23.218313 7.58864886,23.6301205 8.01064958,23.9134978 C8.43230937,24.196875 8.85744663,24.3383214 9.28565223,24.3383214 C9.71385784,24.3383214 10.0836966,24.3053657 10.3953048,24.2398005 C10.7065721,24.1738891 10.998611,24.0748144 11.2712853,23.9431302 C11.3880872,23.0598349 11.7061049,22.3812665 12.2250655,21.9069401 C11.4853881,21.8280127 10.8203739,21.7091368 10.229682,21.5510742 C9.63933097,21.3928039 9.02927435,21.1359434 8.39992121,20.7798006 C7.77022713,20.4241424 7.2478572,19.9824948 6.83267505,19.4556193 C6.41742471,18.928467 6.07663305,18.2363977 5.81077737,17.3800348 C5.54478532,16.5233257 5.4117552,15.5350708 5.4117552,14.4149931 C5.4117552,12.8201738 5.92451096,11.4630368 6.94981792,10.3428208 C6.46951851,9.14381568 6.51486194,7.79969485 7.08598457,6.31059674 C7.46236912,6.19185938 8.02053649,6.28096433 8.76021395,6.57735772 C9.50002778,6.87388958 10.0416942,7.12791138 10.3857588,7.33852308 C10.7298234,7.54906555 11.0054978,7.72748315 11.2131911,7.8721835 C12.4204173,7.52967985 13.6662365,7.35839342 14.9509897,7.35839342 C16.2357429,7.35839342 17.4818348,7.52967985 18.6891292,7.8721835 L19.4288748,7.39799562 C19.9347438,7.08159342 20.5321179,6.79163885 21.2195652,6.52806267 C21.9074216,6.26462496 22.4334054,6.19206708 22.796971,6.31080445 C23.3807762,7.79997179 23.4328018,9.14402339 22.952366,10.3430285 C23.9776048,11.4632445 24.4905651,12.8207276 24.4905651,14.4152008 C24.4905651,15.5352785 24.3570577,16.5266489 24.0914748,17.3899353 C23.8255509,18.2533602 23.4818273,18.9447371 23.0601675,19.4655199 C22.6380304,19.9862334 22.1123194,20.4244193 21.4829662,20.7800083 C20.8534767,21.1358742 20.2432155,21.3927346 19.6528646,21.551005 C19.0622408,21.7092753 18.3972266,21.8282204 17.6575492,21.9072863 C18.3321775,22.5000731 18.6695599,23.4357789 18.6695599,24.7139884 L18.6695599,28.8844739 C18.6695599,29.1213948 18.7507008,29.3191981 18.9131189,29.4772607 C19.0753325,29.6350464 19.3315058,29.6815028 19.6819798,29.6153838 C22.6932607,28.6008889 25.1494426,26.772472 27.0506619,24.1302021 C28.9516766,21.4881399 29.9025249,18.5134747 29.9025249,15.2054447 C29.901843,12.4519148 29.2330786,9.91218145 27.8969135,7.58624453 Z" id="Shape"></path>
                </g>
            </g>
        </g>
    </g>
</svg>
