<?xml version="1.0" encoding="UTF-8"?>
<svg width="30px" height="30px" viewBox="0 0 30 30" version="1.1" xmlns="http://www.w3.org/2000/svg" xmlns:xlink="http://www.w3.org/1999/xlink">
    <!-- Generator: Sketch 46.2 (44496) - http://www.bohemiancoding.com/sketch -->
    <title>social-logo-medium-media-icon</title>
    <desc>Created with Sketch.</desc>
    <defs></defs>
    <g id="Page-1" stroke="none" stroke-width="1" fill="none" fill-rule="evenodd">
        <g id="ICO-LP-ver.1" transform="translate(-675.000000, -498.000000)" fill-rule="nonzero" fill="#6E7987">
            <g id="social-logo-medium-media-icon" transform="translate(675.000000, 498.000000)">
                <path d="M15,0 C23.2846875,0 30,6.7153125 30,15 C30,23.28375 23.2846875,30 15,30 C6.7153125,30 0,23.28375 0,15 C0,6.7153125 6.7153125,0 15,0 Z M23.3990625,10.38375 L17.9990625,7.68375 C17.9746875,7.6715625 17.9475,7.6659375 17.92125,7.665 C17.919375,7.665 17.9175,7.6640625 17.915625,7.6640625 C17.85,7.6640625 17.784375,7.696875 17.7496875,7.7540625 L14.4215625,13.1625 L18.136875,19.2 L23.4515625,10.56375 C23.49,10.5009375 23.4665625,10.4175 23.3990625,10.38375 Z M12.6609375,11.2621875 L12.6609375,17.090625 L17.8415625,19.68 L12.6609375,11.2621875 Z M18.294375,19.903125 L23.05125,22.2815625 C23.3109375,22.4109375 23.52375,22.2796875 23.52375,21.99 L23.52375,11.405625 L18.294375,19.903125 Z M12.0890625,10.4109375 L7.10625,7.92 L6.79125,7.7625 C6.74625,7.74 6.703125,7.72875 6.66375,7.72875 C6.6084375,7.72875 6.5615625,7.7503125 6.5278125,7.790625 C6.4959375,7.83 6.47625,7.88625 6.47625,7.9565625 L6.47625,19.3284375 C6.47625,19.5215625 6.6178125,19.75125 6.79125,19.8375 L11.686875,22.2853125 C11.7553125,22.3190625 11.82,22.335 11.878125,22.335 C12.043125,22.335 12.1584375,22.2075 12.1584375,21.9928125 L12.1584375,10.524375 C12.159375,10.4765625 12.1321875,10.4325 12.0890625,10.4109375 Z" id="Combined-Shape"></path>
            </g>
        </g>
    </g>
</svg>
