<?xml version="1.0" encoding="UTF-8"?>
<svg width="30px" height="30px" viewBox="0 0 30 30" version="1.1" xmlns="http://www.w3.org/2000/svg" xmlns:xlink="http://www.w3.org/1999/xlink">
    <!-- Generator: Sketch 46.2 (44496) - http://www.bohemiancoding.com/sketch -->
    <title>Combined Shape</title>
    <desc>Created with Sketch.</desc>
    <defs></defs>
    <g id="Page-1" stroke="none" stroke-width="1" fill="none" fill-rule="evenodd">
        <g id="ICO-LP-ver.1" transform="translate(-615.000000, -498.000000)" fill-rule="nonzero" fill="#6E7987">
            <path d="M630,528 C621.715729,528 615,521.284271 615,513 C615,504.715729 621.715729,498 630,498 C638.284271,498 645,504.715729 645,513 C645,521.284271 638.284271,528 630,528 Z M640.003729,513 C639.958986,511.791946 638.944817,510.84862 637.733035,510.889635 C637.196122,510.908277 636.685309,511.128262 636.297539,511.49739 C634.589858,510.334079 632.583893,509.696495 630.521999,509.651752 L631.495153,504.972409 L634.705444,505.647278 C634.794929,506.47129 635.533184,507.06786 636.357196,506.978374 C637.181208,506.888889 637.777778,506.150634 637.688292,505.326622 C637.598807,504.50261 636.860552,503.90604 636.03654,503.995526 C635.563013,504.043997 635.137957,504.319911 634.903057,504.730052 L631.226696,503.995526 C630.976883,503.939597 630.727069,504.096197 630.671141,504.349739 C630.671141,504.353468 630.671141,504.353468 630.671141,504.357196 L629.563758,509.562267 C627.475764,509.595824 625.443699,510.237136 623.713647,511.407905 C622.833706,510.580164 621.446682,510.621178 620.618941,511.504847 C619.791201,512.384787 619.832215,513.771812 620.715884,514.599553 C620.887397,514.759881 621.085011,514.897837 621.304996,514.99478 C621.290082,515.214765 621.290082,515.43475 621.304996,515.654735 C621.304996,519.014169 625.219985,521.747204 630.048471,521.747204 C634.876957,521.747204 638.791946,519.017897 638.791946,515.654735 C638.806861,515.43475 638.806861,515.214765 638.791946,514.99478 C639.545116,514.618195 640.018643,513.842655 640.003729,513 Z M625.003729,514.50261 C625.003729,513.67487 625.678598,513 626.506339,513 C627.334079,513 628.008949,513.67487 628.008949,514.50261 C628.008949,515.33035 627.334079,516.00522 626.506339,516.00522 C625.67487,515.997763 625.003729,515.33035 625.003729,514.50261 Z M633.717375,518.626398 C632.651007,519.428039 631.34601,519.83818 630.011186,519.782252 C628.676361,519.83818 627.371365,519.428039 626.304996,518.626398 C626.163311,518.454884 626.189411,518.197614 626.360925,518.055928 C626.510067,517.932886 626.722595,517.932886 626.875466,518.055928 C627.777778,518.715884 628.877703,519.051454 629.996271,518.999254 C631.11484,519.058911 632.218494,518.738255 633.131991,518.085757 C633.296048,517.925429 633.564504,517.929157 633.724832,518.093214 C633.88516,518.257271 633.881432,518.525727 633.717375,518.686055 L633.717375,518.626398 Z M633.448919,516.05742 C632.621178,516.05742 631.946309,515.38255 631.946309,514.55481 C631.946309,513.727069 632.621178,513.0522 633.448919,513.0522 C634.276659,513.0522 634.951529,513.727069 634.951529,514.55481 C634.985086,515.38255 634.340045,516.079791 633.512304,516.113348 C633.486204,516.113348 633.463833,516.113348 633.437733,516.113348 L633.448919,516.05742 Z" id="Combined-Shape"></path>
        </g>
    </g>
</svg>
