<?xml version="1.0" encoding="UTF-8"?>
<svg width="30px" height="30px" viewBox="0 0 30 30" version="1.1" xmlns="http://www.w3.org/2000/svg" xmlns:xlink="http://www.w3.org/1999/xlink">
    <!-- Generator: Sketch 46.2 (44496) - http://www.bohemiancoding.com/sketch -->
    <title>Telegram_alternative_logo</title>
    <desc>Created with Sketch.</desc>
    <defs></defs>
    <g id="Page-1" stroke="none" stroke-width="1" fill="none" fill-rule="evenodd">
        <g id="ICO-LP-ver.1" transform="translate(-555.000000, -498.000000)" fill-rule="nonzero" fill="#6E7987">
            <g id="Telegram_alternative_logo" transform="translate(555.000000, 498.000000)">
                <path d="M29.9653711,14.8427447 C29.9653711,22.9961322 23.2639434,29.6057595 14.9973145,29.6057595 C6.73068494,29.6057595 0.0292576627,22.9961322 0.0292576627,14.8427447 C0.0292576627,6.68935661 6.73068494,0.0797296082 14.9973145,0.0797296082 C23.2639434,0.0797296082 29.9653711,6.68935661 29.9653711,14.8427447 Z M18.3026759,18.2152193 C18.7631735,16.9738936 20.4493373,12.2531273 20.7200639,11.0150056 C21.0261627,9.61511802 20.3853699,9.4784498 18.9279506,9.94797536 C17.4705325,10.417501 13.7328795,11.7838523 13.1037952,12.0040827 C12.4747108,12.2243131 9.41205602,13.2395582 8.77708867,13.542487 C7.48015807,14.2286034 8.11106229,15.2756859 9.56091892,15.819372 C13.8943747,17.8709585 12.6638952,16.8255004 14.5985602,20.6216782 C14.9967096,21.5914489 15.9355169,23.243304 16.8346687,21.994662 C17.3073506,21.2844965 17.9405422,19.1913915 18.3026759,18.2152193 Z" id="Combined-Shape"></path>
            </g>
        </g>
    </g>
</svg>
