<?xml version="1.0" encoding="UTF-8"?>
<svg width="30px" height="30px" viewBox="0 0 30 30" version="1.1" xmlns="http://www.w3.org/2000/svg" xmlns:xlink="http://www.w3.org/1999/xlink">
    <!-- Generator: Sketch 46.2 (44496) - http://www.bohemiancoding.com/sketch -->
    <title>twitter</title>
    <desc>Created with Sketch.</desc>
    <defs></defs>
    <g id="Page-1" stroke="none" stroke-width="1" fill="none" fill-rule="evenodd">
        <g id="ICO-LP-ver.1" transform="translate(-735.000000, -498.000000)" fill-rule="nonzero" fill="#6E7987">
            <g id="twitter" transform="translate(735.000000, 498.000000)">
                <path d="M14.8932743,29.7865487 C6.66794605,29.7865487 0,23.1186026 0,14.8932743 C0,6.66794605 6.66794605,0 14.8932743,0 C23.1186026,0 29.7865487,6.66794605 29.7865487,14.8932743 C29.7865487,23.1186026 23.1186026,29.7865487 14.8932743,29.7865487 Z M24.0159292,10.7033628 C23.3776991,10.9863717 22.6911504,11.1777876 21.9711504,11.2632743 C22.7062832,10.8228319 23.2704425,10.1259292 23.5367257,9.29415929 C22.8488496,9.70221239 22.0866372,9.99823009 21.2761062,10.1577876 C20.6267257,9.46619469 19.7015044,9.0339823 18.6769912,9.0339823 C16.7113274,9.0339823 15.1170796,10.6282301 15.1170796,12.5938938 C15.1170796,12.8729204 15.1486726,13.1445133 15.2097345,13.4052212 C12.2511504,13.2568142 9.62787611,11.839646 7.8719469,9.68522124 C7.56557522,10.210885 7.38982301,10.8228319 7.38982301,11.4751327 C7.38982301,12.7099115 8.01876106,13.8 8.97345133,14.4382301 C8.39017699,14.4199115 7.84088496,14.259823 7.36115044,13.9924779 C7.36088496,14.0076106 7.36088496,14.0227434 7.36088496,14.0376106 C7.36088496,15.7624779 8.58849558,17.2011504 10.2167257,17.5279646 C9.91831858,17.6097345 9.60318584,17.6530088 9.27902655,17.6530088 C9.04911504,17.6530088 8.82637168,17.6309735 8.60920354,17.5895575 C9.06212389,19.0035398 10.3765487,20.0328319 11.9346903,20.0617699 C10.7161062,21.0167257 9.18132743,21.5856637 7.51300885,21.5856637 C7.22628319,21.5856637 6.94221239,21.5689381 6.66424779,21.5357522 C8.23884956,22.5461947 10.110531,23.1353097 12.1207965,23.1353097 C18.6687611,23.1353097 22.249646,17.710885 22.249646,13.0061947 C22.249646,12.8519469 22.2461947,12.6982301 22.239292,12.5458407 C22.9353982,12.0440708 23.5388496,11.4172566 24.0159292,10.7033628 Z" id="Combined-Shape"></path>
            </g>
        </g>
    </g>
</svg>
