<?xml version="1.0" encoding="UTF-8"?>
<svg width="41px" height="41px" viewBox="0 0 41 41" version="1.1" xmlns="http://www.w3.org/2000/svg" xmlns:xlink="http://www.w3.org/1999/xlink">
    <!-- Generator: Sketch 47.1 (45422) - http://www.bohemiancoding.com/sketch -->
    <title>Failed</title>
    <desc>Created with Sketch.</desc>
    <defs></defs>
    <g id="Web" stroke="none" stroke-width="1" fill="none" fill-rule="evenodd">
        <g id="KYC-alert" transform="translate(-700.000000, -200.000000)">
            <g id="Alert" transform="translate(700.000000, 200.000000)">
                <g id="Group" stroke-width="1" fill="#FFD203">
                    <circle id="Oval" cx="20.5" cy="20.5" r="20.5"></circle>
                </g>
                <path d="M19.0498047,22.2851562 L18.6279297,15.9702148 C18.5488277,14.7397399 18.5092773,13.856448 18.5092773,13.3203125 C18.5092773,12.5908167 18.7004375,12.0217306 19.0827637,11.6130371 C19.4650898,11.2043437 19.9682586,11 20.5922852,11 C21.3481483,11 21.8535144,11.261472 22.1083984,11.7844238 C22.3632825,12.3073757 22.4907227,13.0610302 22.4907227,14.0454102 C22.4907227,14.6254912 22.4599612,15.2143525 22.3984375,15.8120117 L21.831543,22.3115234 C21.7700192,23.0849648 21.6381846,23.6782206 21.4360352,24.0913086 C21.2338857,24.5043966 20.8999047,24.7109375 20.434082,24.7109375 C19.9594703,24.7109375 19.6298837,24.5109883 19.4453125,24.111084 C19.2607413,23.7111796 19.1289066,23.1025431 19.0498047,22.2851562 Z M20.5131836,30.9599609 C19.9770481,30.9599609 19.5090352,30.7863787 19.1091309,30.439209 C18.7092265,30.0920393 18.5092773,29.6064484 18.5092773,28.9824219 C18.5092773,28.4374973 18.7004375,27.9738789 19.0827637,27.5915527 C19.4650898,27.2092266 19.9331027,27.0180664 20.4868164,27.0180664 C21.0405301,27.0180664 21.5129375,27.2092266 21.9040527,27.5915527 C22.295168,27.9738789 22.4907227,28.4374973 22.4907227,28.9824219 C22.4907227,29.5976593 22.2929707,30.0810529 21.8974609,30.4326172 C21.5019511,30.7841814 21.04053,30.9599609 20.5131836,30.9599609 Z" id="!" fill="#FFFFFF"></path>
            </g>
        </g>
    </g>
</svg>