<?xml version="1.0" encoding="UTF-8"?>
<svg width="41px" height="41px" viewBox="0 0 41 41" version="1.1" xmlns="http://www.w3.org/2000/svg" xmlns:xlink="http://www.w3.org/1999/xlink">
    <!-- Generator: Sketch 47.1 (45422) - http://www.bohemiancoding.com/sketch -->
    <title>Failed</title>
    <desc>Created with Sketch.</desc>
    <defs></defs>
    <g id="Web" stroke="none" stroke-width="1" fill="none" fill-rule="evenodd">
        <g id="Failed" transform="translate(-700.000000, -200.000000)">
            <g transform="translate(700.000000, 200.000000)" id="Group">
                <g>
                    <circle id="Oval" fill="#FF4C4C" cx="20.5" cy="20.5" r="20.5"></circle>
                    <path d="M20.5,18.9716976 L15.2924536,13.7641512 C14.8704246,13.3421221 14.1861803,13.3421221 13.7641512,13.7641512 L13.7641512,13.7641512 L13.7641512,13.7641512 C13.3421221,14.1861803 13.3421221,14.8704246 13.7641512,15.2924536 L13.7641512,15.2924536 L18.9716976,20.5 L13.7641512,25.7075464 C13.3421221,26.1295754 13.3421221,26.8138197 13.7641512,27.2358488 L13.7641512,27.2358488 C14.1861803,27.6578779 14.8704246,27.6578779 15.2924536,27.2358488 L20.5,22.0283024 L25.7075464,27.2358488 C26.1295754,27.6578779 26.8138197,27.6578779 27.2358488,27.2358488 L27.2358488,27.2358488 C27.6578779,26.8138197 27.6578779,26.1295754 27.2358488,25.7075464 L22.0283024,20.5 L27.2358488,15.2924536 L27.2358488,15.2924536 C27.6578779,14.8704246 27.6578779,14.1861803 27.2358488,13.7641512 L27.2358488,13.7641512 L27.2358488,13.7641512 C26.8138197,13.3421221 26.1295754,13.3421221 25.7075464,13.7641512 L20.5,18.9716976 Z" id="Combined-Shape" fill="#FFFFFF" fill-rule="nonzero"></path>
                </g>
            </g>
        </g>
    </g>
</svg>