<?xml version="1.0" encoding="UTF-8"?>
<svg width="23px" height="23px" viewBox="0 0 23 23" version="1.1" xmlns="http://www.w3.org/2000/svg" xmlns:xlink="http://www.w3.org/1999/xlink">
    <!-- Generator: Sketch 47 (45396) - http://www.bohemiancoding.com/sketch -->
    <title>FAQ Icon</title>
    <desc>Created with Sketch.</desc>
    <defs></defs>
    <g id="Symbols" stroke="none" stroke-width="1" fill="none" fill-rule="evenodd">
        <g id="FAQ-Icon">
            <circle id="Oval-2" stroke="#6E7987" stroke-width="1.5" cx="11.5" cy="11.5" r="10.75"></circle>
            <path d="M10.265625,14.1875 C10.265625,13.4947882 10.3515616,12.9427104 10.5234375,12.53125 C10.6953134,12.1197896 11.0351537,11.6679712 11.5429688,11.1757812 C12.0507838,10.6835913 12.3723952,10.3333344 12.5078125,10.125 C12.7161469,9.80729008 12.8203125,9.46354352 12.8203125,9.09375 C12.8203125,8.60416422 12.69922,8.23047004 12.4570312,7.97265625 C12.2148425,7.71484246 11.8593773,7.5859375 11.390625,7.5859375 C10.9427061,7.5859375 10.5820326,7.71223832 10.3085938,7.96484375 C10.0351549,8.21744918 9.8984375,8.55989367 9.8984375,8.9921875 L8,8.9921875 C8.01041672,8.07030789 8.32421566,7.34114852 8.94140625,6.8046875 C9.55859684,6.26822648 10.3749949,6 11.390625,6 C12.4375052,6 13.2539033,6.26562234 13.8398438,6.796875 C14.4257842,7.32812766 14.71875,8.07030773 14.71875,9.0234375 C14.71875,9.87240008 14.3229206,10.7083292 13.53125,11.53125 L12.5703125,12.4765625 C12.2265608,12.8671895 12.0494792,13.4374963 12.0390625,14.1875 L10.265625,14.1875 Z M10.1328125,16.6171875 C10.1328125,16.3098943 10.2291657,16.0611989 10.421875,15.8710938 C10.6145843,15.6809886 10.8749984,15.5859375 11.203125,15.5859375 C11.53646,15.5859375 11.7994782,15.6835928 11.9921875,15.8789062 C12.1848968,16.0742197 12.28125,16.320311 12.28125,16.6171875 C12.28125,16.9036473 12.1875009,17.1432282 12,17.3359375 C11.8124991,17.5286468 11.5468767,17.625 11.203125,17.625 C10.8593733,17.625 10.595053,17.5286468 10.4101562,17.3359375 C10.2252595,17.1432282 10.1328125,16.9036473 10.1328125,16.6171875 Z" id="?" fill="#6E7987"></path>
        </g>
    </g>
</svg>
