<?xml version="1.0" encoding="UTF-8"?>
<svg width="41px" height="41px" viewBox="0 0 41 41" version="1.1" xmlns="http://www.w3.org/2000/svg" xmlns:xlink="http://www.w3.org/1999/xlink">
    <!-- Generator: Sketch 47.1 (45422) - http://www.bohemiancoding.com/sketch -->
    <title>Failed</title>
    <desc>Created with Sketch.</desc>
    <defs></defs>
    <g id="Web" stroke="none" stroke-width="1" fill="none" fill-rule="evenodd">
        <g id="Dashboard-—-What-is-gas-fee" transform="translate(-700.000000, -200.000000)">
            <g id="Ques" transform="translate(700.000000, 200.000000)">
                <circle id="Oval-2" fill="#6E7987" cx="20.5" cy="20.5" r="20.5"></circle>
                <path d="M18.2995924,25.2907609 C18.2995924,24.0559268 18.4527838,23.0717881 18.7591712,22.3383152 C19.0655586,21.6048423 19.671361,20.7994269 20.5765965,19.9220448 C21.481832,19.0446627 22.0551392,18.4202917 22.2965353,18.048913 C22.667914,17.4825606 22.8536005,16.869795 22.8536005,16.2105978 C22.8536005,15.337858 22.6377399,14.6717075 22.2060122,14.2121264 C21.7742845,13.7525453 21.1406292,13.5227582 20.3050272,13.5227582 C19.506563,13.5227582 18.8636234,13.7479031 18.3761889,14.1981997 C17.8887544,14.6484964 17.6450408,15.2589409 17.6450408,16.0295516 L14.2608696,16.0295516 C14.2794385,14.386201 14.8388192,13.0863952 15.9390285,12.1300951 C17.0392378,11.173795 18.4945562,10.6956522 20.3050272,10.6956522 C22.171205,10.6956522 23.6265233,11.1691529 24.6710258,12.1161685 C25.7155283,13.0631841 26.2377717,14.3862007 26.2377717,16.0852582 C26.2377717,17.5986262 25.5321629,19.0887608 24.1209239,20.5557065 L22.4079484,22.2408288 C21.7951736,22.9371638 21.4795064,23.9537977 21.4609375,25.2907609 L18.2995924,25.2907609 Z M18.0628397,30.3600543 C18.0628397,29.8122708 18.2345997,29.3689442 18.578125,29.0300611 C18.9216503,28.6911781 19.3858666,28.5217391 19.970788,28.5217391 C20.5649939,28.5217391 21.0338524,28.6958203 21.3773777,29.0439878 C21.720903,29.3921553 21.892663,29.8308397 21.892663,30.3600543 C21.892663,30.8707 21.7255451,31.2977791 21.3913043,31.6413043 C21.0570635,31.9848296 20.5835628,32.1565897 19.970788,32.1565897 C19.3580132,32.1565897 18.8868336,31.9848296 18.5572351,31.6413043 C18.2276365,31.2977791 18.0628397,30.8707 18.0628397,30.3600543 Z" id="?" stroke="#FFFFFF" stroke-width="0.5" fill="#FFFFFF"></path>
            </g>
        </g>
    </g>
</svg>
