<?xml version="1.0" encoding="UTF-8"?>
<svg width="20px" height="13px" viewBox="0 0 20 13" version="1.1" xmlns="http://www.w3.org/2000/svg" xmlns:xlink="http://www.w3.org/1999/xlink">
    <!-- Generator: sketchtool 42 (36781) - http://www.bohemiancoding.com/sketch -->
    <title>5C2C6028-91B6-4FE4-845F-F69B40198EF6</title>
    <desc>Created with sketchtool.</desc>
    <defs></defs>
    <g id="Symbols" stroke="none" stroke-width="1" fill="none" fill-rule="evenodd">
        <g id="Show-Password-On" transform="translate(-5.000000, -9.000000)" fill="#222222">
            <path d="M15,9 C9.56398641,9 5.38505096,14.5511364 5.20385051,14.8238636 C4.93204983,15.1875 4.93204983,15.5397727 5.20385051,15.9034091 C5.38505096,16.1761364 9.56398641,21.7272727 15,21.7272727 C20.4360136,21.7272727 24.614949,16.1761364 24.7961495,15.9034091 C25.0679502,15.5397727 25.0679502,15.1875 24.7961495,14.8238636 C24.614949,14.5511364 20.4360136,9 15,9 L15,9 Z M15,10.8181818 C17.5368063,10.8181818 19.5300113,12.8181818 19.5300113,15.3636364 C19.5300113,17.9090909 17.5368063,19.9090909 15,19.9090909 C12.4631937,19.9090909 10.4699887,17.9090909 10.4699887,15.3636364 C10.4699887,12.8181818 12.4631937,10.8181818 15,10.8181818 L15,10.8181818 Z M15,13.0909091 C13.7490718,13.0909091 12.7349943,14.1084436 12.7349943,15.3636364 C12.7349943,16.6188291 13.7490718,17.6363636 15,17.6363636 C16.2509282,17.6363636 17.2650057,16.6188291 17.2650057,15.3636364 C17.2650057,14.1084436 16.2509282,13.0909091 15,13.0909091 L15,13.0909091 Z" id="Shape"></path>
        </g>
    </g>
</svg>
